HIERARCHY
ROOT root     
{
	OFFSET 0.0000 0.0000 0.0000
	CHANNELS 6 Xposition Yposition Zposition Zrotation Yrotation Xrotation
	JOINT pelvis   
	{
		OFFSET 0.0000 0.0000 0.0000
		CHANNELS 3 Zrotation Yrotation Xrotation
		JOINT thorax   
		{
			OFFSET 0.0000 23.0750 -5.0000
			CHANNELS 3 Zrotation Yrotation Xrotation
			JOINT rclavicle
			{
				OFFSET 0.0000 28.0009 0.0000
				CHANNELS 3 Zrotation Yrotation Xrotation
				JOINT rhumerus 
				{
					OFFSET -18.5725 5.5939 0.0000
					CHANNELS 3 Zrotation Yrotation Xrotation
					JOINT rradius  
					{
						OFFSET -24.8459 0.0000 0.0000
						CHANNELS 3 Zrotation Yrotation Xrotation
						JOINT rhand    
						{
							OFFSET -24.5477 0.0000 0.0000
							CHANNELS 3 Zrotation Yrotation Xrotation
							End Site
							{
								OFFSET -8.1826 0.0000 0.0000
							}
						}
					}
				}
			}
			JOINT lclavicle
			{
				OFFSET 0.0000 28.0009 0.0000
				CHANNELS 3 Zrotation Yrotation Xrotation
				JOINT lhumerus 
				{
					OFFSET 18.5725 5.5939 0.0000
					CHANNELS 3 Zrotation Yrotation Xrotation
					JOINT lradius  
					{
						OFFSET 24.8459 0.0000 0.0000
						CHANNELS 3 Zrotation Yrotation Xrotation
						JOINT lhand    
						{
							OFFSET 24.5477 0.0000 0.0000
							CHANNELS 3 Zrotation Yrotation Xrotation
							End Site
							{
								OFFSET 8.1826 0.0000 0.0000
							}
						}
					}
				}
			}
			JOINT head     
			{
				OFFSET 0.0000 35.2030 0.0000
				CHANNELS 3 Zrotation Yrotation Xrotation
				End Site
				{
					OFFSET 0.0000 11.7343 0.0000
				}
			}
		}
		JOINT rfemur   
		{
			OFFSET -8.2817 0.0000 0.0000
			CHANNELS 3 Zrotation Yrotation Xrotation
			JOINT rtibia   
			{
				OFFSET 0.0000 -43.3627 0.0000
				CHANNELS 3 Zrotation Yrotation Xrotation
				JOINT rfoot    
				{
					OFFSET 0.0000 -38.2947 0.0000
					CHANNELS 3 Zrotation Yrotation Xrotation
					JOINT rtoes    
					{
						OFFSET 0.0000 0.0000 16.6054
						CHANNELS 3 Zrotation Yrotation Xrotation
						End Site
						{
							OFFSET 0.0000 0.0000 5.5351
						}
					}
				}
			}
		}
		JOINT lfemur   
		{
			OFFSET 8.2817 0.0000 0.0000
			CHANNELS 3 Zrotation Yrotation Xrotation
			JOINT ltibia   
			{
				OFFSET 0.0000 -43.3627 0.0000
				CHANNELS 3 Zrotation Yrotation Xrotation
				JOINT lfoot    
				{
					OFFSET 0.0000 -38.2947 0.0000
					CHANNELS 3 Zrotation Yrotation Xrotation
					JOINT ltoes    
					{
						OFFSET 0.0000 0.0000 16.6054
						CHANNELS 3 Zrotation Yrotation Xrotation
						End Site
						{
							OFFSET 0.0000 0.0000 5.5351
						}
					}
				}
			}
		}
	}
}
MOTION
Frames: 7
Frame Time: .0333333
-78.361 89.664 -6.8497 36.6118 89.4251 62.1962 0 -0 0 4.12791 -7.90507 -2.96439 1.34911 -3.62102 -5.82776e-07 9.29475 72.7199 -19.9302 -0 47.0377 -0 11.0237 -1.96001 -0.189203 -0.297002 8.80165 -1.32886e-08 27.6006 -61.559 -38.9249 2.19462e-07 -34.7556 -7.01261e-07 0.351205 -0.804699 -0.00250003 2.09989 -16.4675 -26.8105 -1.01806 -7.36317 -40.1643 -0 -0 49.9534 2.40575e-06 -3.96005 7.94852 -0.548501 -4.70765e-06 -55.5338 2.13314 6.97644 -7.92689 -0 -0 17.161 1.45203e-05 5.13012 22.7102 1.98504 -3.26733e-05 -57.6989 
-76.885 90.024 -6.6337 45.276 89.6055 71.0424 0 -0 0 4.91934 -7.91815 -3.00731 1.5607 -3.70893 1.10759e-06 12.4847 72.6743 -18.7939 -0 48.2385 -0 10.0496 -1.31641 -0.115803 -0.36431 8.70048 -1.08218e-07 27.571 -61.0538 -34.8234 0 -34.4195 0 -0.462693 -0.657103 0.00269995 0.688509 -16.4041 -27.6087 -0.462116 -7.40265 -40.618 -0 -0 46.0457 -5.39279e-06 -3.33048 8.44808 -0.489805 1.65734e-06 -57.1483 2.48857 7.38155 -7.47452 -0 -0 17.3371 3.91112e-05 5.46955 24.2907 2.25574 -6.86862e-06 -55.3825 
-75.4 90.304 -6.4181 61.5915 89.6374 87.533 0 -0 0 5.6339 -7.9263 -3.06563 1.77949 -3.76328 7.30286e-07 15.8619 72.6997 -17.6881 -0 49.2582 -0 8.79917 -0.413902 -0.0317998 -0.382603 8.61363 -8.71295e-07 27.4922 -60.6213 -30.7737 0 -34.1869 0 -1.33713 -0.473896 0.00550011 -0.699617 -16.2053 -28.3286 -0.0794255 -7.27702 -40.9505 -0 -0 42.0711 -1.87838e-06 -2.67062 8.97709 -0.417004 2.69863e-06 -58.6828 2.80488 7.68509 -7.04017 -0 -0 17.765 -3.91124e-06 6.07454 25.4428 2.61763 -3.93462e-05 -53.1129 
-73.905 90.495 -6.2104 83.4582 89.6172 109.523 0 -0 0 6.21644 -7.95833 -3.13384 2.00869 -3.76732 5.90956e-08 19.557 72.77 -16.5706 -0 50.1061 -0 7.35201 0.730097 0.0469001 -0.364991 8.51508 5.3104e-07 27.405 -60.2241 -26.8093 0 -34.0583 0 -2.30252 -0.267897 0.00539969 -2.0552 -15.8797 -28.9426 0.0856154 -7.02927 -41.1561 -0 -0 38.083 2.27722e-06 -2.01649 9.56776 -0.335295 6.05467e-06 -60.1151 3.04435 7.89258 -6.63233 -0 -0 18.4985 -7.75594e-07 6.84374 26.1523 3.02817 6.89543e-05 -50.8153 
-72.384 90.595 -6.0119 95.5225 89.5059 121.653 0 -0 0 6.64708 -8.02173 -3.18011 2.2794 -3.72105 -1.11928e-06 23.4638 72.8834 -15.4482 -0 50.7838 -0 5.72325 2.15154 0.1076 -0.284303 8.41111 -4.6666e-07 27.222 -59.8999 -22.9989 2.13131e-07 -34.0262 -6.96552e-07 -3.3762 -0.0203003 0.000599982 -3.37336 -15.4395 -29.4263 0.0327299 -6.69501 -41.1923 -0 -0 34.1489 -2.66219e-06 -1.40962 10.221 -0.250199 5.92381e-06 -61.0785 3.20719 7.9669 -6.17765 -0 -0 19.4688 4.28634e-05 7.73045 26.5263 3.46931 -6.01904e-05 -48.9898 
-70.833 90.598 -5.8247 99.6375 89.2587 125.751 0 -0 0 6.90678 -8.13213 -3.19965 2.59503 -3.6176 1.94984e-06 27.5912 73.0033 -14.3189 -0 51.3276 -0 3.99466 3.79548 0.132402 -0.146899 8.28593 -2.07905e-08 26.9362 -59.6392 -19.3927 0 -34.0752 0 -4.57495 0.269303 -0.0108003 -4.6506 -14.9034 -29.7544 -0.228209 -6.32887 -41.073 -0 -0 30.3848 -8.98532e-07 -0.888203 10.9345 -0.168498 2.75808e-06 -61.5098 3.28666 7.95112 -5.68922 -0 -0 20.7196 1.24239e-05 8.59722 26.5951 3.87204 -2.95188e-06 -47.588 
-69.248 90.503 -5.6505 100.857 88.8735 126.85 0 -0 0 6.98943 -8.29057 -3.18314 2.96136 -3.45695 2.59063e-06 31.8686 73.1102 -13.2034 -0 51.7755 -0 2.21224 5.59714 0.108203 0.0344992 8.12876 -4.25088e-08 26.5392 -59.4431 -16.05 0 -34.1927 0 -5.90727 0.611204 -0.0314999 -5.88914 -14.289 -29.9064 -0.663045 -5.99024 -40.8175 -0 -0 26.9358 -9.91185e-07 -0.469701 11.6663 -0.0949995 5.56457e-08 -61.3623 3.28299 7.85868 -5.15418 -0 -0 22.2451 4.9288e-05 9.36002 26.4261 4.19552 1.02044e-05 -46.6209 
